<?xml version="1.0" encoding="UTF-8" standalone="no"?>
<!DOCTYPE svg PUBLIC "-//W3C//DTD SVG 1.1//EN" "http://www.w3.org/Graphics/SVG/1.1/DTD/svg11.dtd">
<svg width="100%" height="100%" viewBox="0 0 264 264" version="1.1" xmlns="http://www.w3.org/2000/svg" xmlns:xlink="http://www.w3.org/1999/xlink" xml:space="preserve" xmlns:serif="http://www.serif.com/" style="fill-rule:evenodd;clip-rule:evenodd;stroke-linejoin:round;stroke-miterlimit:2;">
    <g>
        <g id="p" transform="matrix(1,0,0,1,32,32)">
            <rect x="0" y="0" width="8" height="8" style="fill:white;"/>
        </g>
        <g id="p1" serif:id="p" transform="matrix(1,0,0,1,32,40)">
            <rect x="0" y="0" width="8" height="8" style="fill:white;"/>
        </g>
        <g id="p2" serif:id="p" transform="matrix(1,0,0,1,32,48)">
            <rect x="0" y="0" width="8" height="8" style="fill:white;"/>
        </g>
        <g id="p3" serif:id="p" transform="matrix(1,0,0,1,32,56)">
            <rect x="0" y="0" width="8" height="8" style="fill:white;"/>
        </g>
        <g id="p4" serif:id="p" transform="matrix(1,0,0,1,32,64)">
            <rect x="0" y="0" width="8" height="8" style="fill:white;"/>
        </g>
        <g id="p5" serif:id="p" transform="matrix(1,0,0,1,32,72)">
            <rect x="0" y="0" width="8" height="8" style="fill:white;"/>
        </g>
        <g id="p6" serif:id="p" transform="matrix(1,0,0,1,32,80)">
            <rect x="0" y="0" width="8" height="8" style="fill:white;"/>
        </g>
        <g id="p7" serif:id="p" transform="matrix(1,0,0,1,32,96)">
            <rect x="0" y="0" width="8" height="8" style="fill:white;"/>
        </g>
        <g id="p8" serif:id="p" transform="matrix(1,0,0,1,32,104)">
            <rect x="0" y="0" width="8" height="8" style="fill:white;"/>
        </g>
        <g id="p9" serif:id="p" transform="matrix(1,0,0,1,32,128)">
            <rect x="0" y="0" width="8" height="8" style="fill:white;"/>
        </g>
        <g id="p10" serif:id="p" transform="matrix(1,0,0,1,32,176)">
            <rect x="0" y="0" width="8" height="8" style="fill:white;"/>
        </g>
        <g id="p11" serif:id="p" transform="matrix(1,0,0,1,32,184)">
            <rect x="0" y="0" width="8" height="8" style="fill:white;"/>
        </g>
        <g id="p12" serif:id="p" transform="matrix(1,0,0,1,32,192)">
            <rect x="0" y="0" width="8" height="8" style="fill:white;"/>
        </g>
        <g id="p13" serif:id="p" transform="matrix(1,0,0,1,32,200)">
            <rect x="0" y="0" width="8" height="8" style="fill:white;"/>
        </g>
        <g id="p14" serif:id="p" transform="matrix(1,0,0,1,32,208)">
            <rect x="0" y="0" width="8" height="8" style="fill:white;"/>
        </g>
        <g id="p15" serif:id="p" transform="matrix(1,0,0,1,32,216)">
            <rect x="0" y="0" width="8" height="8" style="fill:white;"/>
        </g>
        <g id="p16" serif:id="p" transform="matrix(1,0,0,1,32,224)">
            <rect x="0" y="0" width="8" height="8" style="fill:white;"/>
        </g>
        <g id="p17" serif:id="p" transform="matrix(1,0,0,1,40,32)">
            <rect x="0" y="0" width="8" height="8" style="fill:white;"/>
        </g>
        <g id="p18" serif:id="p" transform="matrix(1,0,0,1,40,80)">
            <rect x="0" y="0" width="8" height="8" style="fill:white;"/>
        </g>
        <g id="p19" serif:id="p" transform="matrix(1,0,0,1,40,96)">
            <rect x="0" y="0" width="8" height="8" style="fill:white;"/>
        </g>
        <g id="p20" serif:id="p" transform="matrix(1,0,0,1,40,112)">
            <rect x="0" y="0" width="8" height="8" style="fill:white;"/>
        </g>
        <g id="p21" serif:id="p" transform="matrix(1,0,0,1,40,120)">
            <rect x="0" y="0" width="8" height="8" style="fill:white;"/>
        </g>
        <g id="p22" serif:id="p" transform="matrix(1,0,0,1,40,144)">
            <rect x="0" y="0" width="8" height="8" style="fill:white;"/>
        </g>
        <g id="p23" serif:id="p" transform="matrix(1,0,0,1,40,152)">
            <rect x="0" y="0" width="8" height="8" style="fill:white;"/>
        </g>
        <g id="p24" serif:id="p" transform="matrix(1,0,0,1,40,160)">
            <rect x="0" y="0" width="8" height="8" style="fill:white;"/>
        </g>
        <g id="p25" serif:id="p" transform="matrix(1,0,0,1,40,176)">
            <rect x="0" y="0" width="8" height="8" style="fill:white;"/>
        </g>
        <g id="p26" serif:id="p" transform="matrix(1,0,0,1,40,224)">
            <rect x="0" y="0" width="8" height="8" style="fill:white;"/>
        </g>
        <g id="p27" serif:id="p" transform="matrix(1,0,0,1,48,32)">
            <rect x="0" y="0" width="8" height="8" style="fill:white;"/>
        </g>
        <g id="p28" serif:id="p" transform="matrix(1,0,0,1,48,48)">
            <rect x="0" y="0" width="8" height="8" style="fill:white;"/>
        </g>
        <g id="p29" serif:id="p" transform="matrix(1,0,0,1,48,56)">
            <rect x="0" y="0" width="8" height="8" style="fill:white;"/>
        </g>
        <g id="p30" serif:id="p" transform="matrix(1,0,0,1,48,64)">
            <rect x="0" y="0" width="8" height="8" style="fill:white;"/>
        </g>
        <g id="p31" serif:id="p" transform="matrix(1,0,0,1,48,80)">
            <rect x="0" y="0" width="8" height="8" style="fill:white;"/>
        </g>
        <g id="p32" serif:id="p" transform="matrix(1,0,0,1,48,120)">
            <rect x="0" y="0" width="8" height="8" style="fill:white;"/>
        </g>
        <g id="p33" serif:id="p" transform="matrix(1,0,0,1,48,128)">
            <rect x="0" y="0" width="8" height="8" style="fill:white;"/>
        </g>
        <g id="p34" serif:id="p" transform="matrix(1,0,0,1,48,136)">
            <rect x="0" y="0" width="8" height="8" style="fill:white;"/>
        </g>
        <g id="p35" serif:id="p" transform="matrix(1,0,0,1,48,160)">
            <rect x="0" y="0" width="8" height="8" style="fill:white;"/>
        </g>
        <g id="p36" serif:id="p" transform="matrix(1,0,0,1,48,176)">
            <rect x="0" y="0" width="8" height="8" style="fill:white;"/>
        </g>
        <g id="p37" serif:id="p" transform="matrix(1,0,0,1,48,192)">
            <rect x="0" y="0" width="8" height="8" style="fill:white;"/>
        </g>
        <g id="p38" serif:id="p" transform="matrix(1,0,0,1,48,200)">
            <rect x="0" y="0" width="8" height="8" style="fill:white;"/>
        </g>
        <g id="p39" serif:id="p" transform="matrix(1,0,0,1,48,208)">
            <rect x="0" y="0" width="8" height="8" style="fill:white;"/>
        </g>
        <g id="p40" serif:id="p" transform="matrix(1,0,0,1,48,224)">
            <rect x="0" y="0" width="8" height="8" style="fill:white;"/>
        </g>
        <g id="p41" serif:id="p" transform="matrix(1,0,0,1,56,32)">
            <rect x="0" y="0" width="8" height="8" style="fill:white;"/>
        </g>
        <g id="p42" serif:id="p" transform="matrix(1,0,0,1,56,48)">
            <rect x="0" y="0" width="8" height="8" style="fill:white;"/>
        </g>
        <g id="p43" serif:id="p" transform="matrix(1,0,0,1,56,56)">
            <rect x="0" y="0" width="8" height="8" style="fill:white;"/>
        </g>
        <g id="p44" serif:id="p" transform="matrix(1,0,0,1,56,64)">
            <rect x="0" y="0" width="8" height="8" style="fill:white;"/>
        </g>
        <g id="p45" serif:id="p" transform="matrix(1,0,0,1,56,80)">
            <rect x="0" y="0" width="8" height="8" style="fill:white;"/>
        </g>
        <g id="p46" serif:id="p" transform="matrix(1,0,0,1,56,112)">
            <rect x="0" y="0" width="8" height="8" style="fill:white;"/>
        </g>
        <g id="p47" serif:id="p" transform="matrix(1,0,0,1,56,144)">
            <rect x="0" y="0" width="8" height="8" style="fill:white;"/>
        </g>
        <g id="p48" serif:id="p" transform="matrix(1,0,0,1,56,152)">
            <rect x="0" y="0" width="8" height="8" style="fill:white;"/>
        </g>
        <g id="p49" serif:id="p" transform="matrix(1,0,0,1,56,160)">
            <rect x="0" y="0" width="8" height="8" style="fill:white;"/>
        </g>
        <g id="p50" serif:id="p" transform="matrix(1,0,0,1,56,176)">
            <rect x="0" y="0" width="8" height="8" style="fill:white;"/>
        </g>
        <g id="p51" serif:id="p" transform="matrix(1,0,0,1,56,192)">
            <rect x="0" y="0" width="8" height="8" style="fill:white;"/>
        </g>
        <g id="p52" serif:id="p" transform="matrix(1,0,0,1,56,200)">
            <rect x="0" y="0" width="8" height="8" style="fill:white;"/>
        </g>
        <g id="p53" serif:id="p" transform="matrix(1,0,0,1,56,208)">
            <rect x="0" y="0" width="8" height="8" style="fill:white;"/>
        </g>
        <g id="p54" serif:id="p" transform="matrix(1,0,0,1,56,224)">
            <rect x="0" y="0" width="8" height="8" style="fill:white;"/>
        </g>
        <g id="p55" serif:id="p" transform="matrix(1,0,0,1,64,32)">
            <rect x="0" y="0" width="8" height="8" style="fill:white;"/>
        </g>
        <g id="p56" serif:id="p" transform="matrix(1,0,0,1,64,48)">
            <rect x="0" y="0" width="8" height="8" style="fill:white;"/>
        </g>
        <g id="p57" serif:id="p" transform="matrix(1,0,0,1,64,56)">
            <rect x="0" y="0" width="8" height="8" style="fill:white;"/>
        </g>
        <g id="p58" serif:id="p" transform="matrix(1,0,0,1,64,64)">
            <rect x="0" y="0" width="8" height="8" style="fill:white;"/>
        </g>
        <g id="p59" serif:id="p" transform="matrix(1,0,0,1,64,80)">
            <rect x="0" y="0" width="8" height="8" style="fill:white;"/>
        </g>
        <g id="p60" serif:id="p" transform="matrix(1,0,0,1,64,112)">
            <rect x="0" y="0" width="8" height="8" style="fill:white;"/>
        </g>
        <g id="p61" serif:id="p" transform="matrix(1,0,0,1,64,120)">
            <rect x="0" y="0" width="8" height="8" style="fill:white;"/>
        </g>
        <g id="p62" serif:id="p" transform="matrix(1,0,0,1,64,128)">
            <rect x="0" y="0" width="8" height="8" style="fill:white;"/>
        </g>
        <g id="p63" serif:id="p" transform="matrix(1,0,0,1,64,136)">
            <rect x="0" y="0" width="8" height="8" style="fill:white;"/>
        </g>
        <g id="p64" serif:id="p" transform="matrix(1,0,0,1,64,144)">
            <rect x="0" y="0" width="8" height="8" style="fill:white;"/>
        </g>
        <g id="p65" serif:id="p" transform="matrix(1,0,0,1,64,152)">
            <rect x="0" y="0" width="8" height="8" style="fill:white;"/>
        </g>
        <g id="p66" serif:id="p" transform="matrix(1,0,0,1,64,160)">
            <rect x="0" y="0" width="8" height="8" style="fill:white;"/>
        </g>
        <g id="p67" serif:id="p" transform="matrix(1,0,0,1,64,176)">
            <rect x="0" y="0" width="8" height="8" style="fill:white;"/>
        </g>
        <g id="p68" serif:id="p" transform="matrix(1,0,0,1,64,192)">
            <rect x="0" y="0" width="8" height="8" style="fill:white;"/>
        </g>
        <g id="p69" serif:id="p" transform="matrix(1,0,0,1,64,200)">
            <rect x="0" y="0" width="8" height="8" style="fill:white;"/>
        </g>
        <g id="p70" serif:id="p" transform="matrix(1,0,0,1,64,208)">
            <rect x="0" y="0" width="8" height="8" style="fill:white;"/>
        </g>
        <g id="p71" serif:id="p" transform="matrix(1,0,0,1,64,224)">
            <rect x="0" y="0" width="8" height="8" style="fill:white;"/>
        </g>
        <g id="p72" serif:id="p" transform="matrix(1,0,0,1,72,32)">
            <rect x="0" y="0" width="8" height="8" style="fill:white;"/>
        </g>
        <g id="p73" serif:id="p" transform="matrix(1,0,0,1,72,80)">
            <rect x="0" y="0" width="8" height="8" style="fill:white;"/>
        </g>
        <g id="p74" serif:id="p" transform="matrix(1,0,0,1,72,96)">
            <rect x="0" y="0" width="8" height="8" style="fill:white;"/>
        </g>
        <g id="p75" serif:id="p" transform="matrix(1,0,0,1,72,120)">
            <rect x="0" y="0" width="8" height="8" style="fill:white;"/>
        </g>
        <g id="p76" serif:id="p" transform="matrix(1,0,0,1,72,176)">
            <rect x="0" y="0" width="8" height="8" style="fill:white;"/>
        </g>
        <g id="p77" serif:id="p" transform="matrix(1,0,0,1,72,224)">
            <rect x="0" y="0" width="8" height="8" style="fill:white;"/>
        </g>
        <g id="p78" serif:id="p" transform="matrix(1,0,0,1,80,32)">
            <rect x="0" y="0" width="8" height="8" style="fill:white;"/>
        </g>
        <g id="p79" serif:id="p" transform="matrix(1,0,0,1,80,40)">
            <rect x="0" y="0" width="8" height="8" style="fill:white;"/>
        </g>
        <g id="p80" serif:id="p" transform="matrix(1,0,0,1,80,48)">
            <rect x="0" y="0" width="8" height="8" style="fill:white;"/>
        </g>
        <g id="p81" serif:id="p" transform="matrix(1,0,0,1,80,56)">
            <rect x="0" y="0" width="8" height="8" style="fill:white;"/>
        </g>
        <g id="p82" serif:id="p" transform="matrix(1,0,0,1,80,64)">
            <rect x="0" y="0" width="8" height="8" style="fill:white;"/>
        </g>
        <g id="p83" serif:id="p" transform="matrix(1,0,0,1,80,72)">
            <rect x="0" y="0" width="8" height="8" style="fill:white;"/>
        </g>
        <g id="p84" serif:id="p" transform="matrix(1,0,0,1,80,80)">
            <rect x="0" y="0" width="8" height="8" style="fill:white;"/>
        </g>
        <g id="p85" serif:id="p" transform="matrix(1,0,0,1,80,96)">
            <rect x="0" y="0" width="8" height="8" style="fill:white;"/>
        </g>
        <g id="p86" serif:id="p" transform="matrix(1,0,0,1,80,112)">
            <rect x="0" y="0" width="8" height="8" style="fill:white;"/>
        </g>
        <g id="p87" serif:id="p" transform="matrix(1,0,0,1,80,128)">
            <rect x="0" y="0" width="8" height="8" style="fill:white;"/>
        </g>
        <g id="p88" serif:id="p" transform="matrix(1,0,0,1,80,144)">
            <rect x="0" y="0" width="8" height="8" style="fill:white;"/>
        </g>
        <g id="p89" serif:id="p" transform="matrix(1,0,0,1,80,160)">
            <rect x="0" y="0" width="8" height="8" style="fill:white;"/>
        </g>
        <g id="p90" serif:id="p" transform="matrix(1,0,0,1,80,176)">
            <rect x="0" y="0" width="8" height="8" style="fill:white;"/>
        </g>
        <g id="p91" serif:id="p" transform="matrix(1,0,0,1,80,184)">
            <rect x="0" y="0" width="8" height="8" style="fill:white;"/>
        </g>
        <g id="p92" serif:id="p" transform="matrix(1,0,0,1,80,192)">
            <rect x="0" y="0" width="8" height="8" style="fill:white;"/>
        </g>
        <g id="p93" serif:id="p" transform="matrix(1,0,0,1,80,200)">
            <rect x="0" y="0" width="8" height="8" style="fill:white;"/>
        </g>
        <g id="p94" serif:id="p" transform="matrix(1,0,0,1,80,208)">
            <rect x="0" y="0" width="8" height="8" style="fill:white;"/>
        </g>
        <g id="p95" serif:id="p" transform="matrix(1,0,0,1,80,216)">
            <rect x="0" y="0" width="8" height="8" style="fill:white;"/>
        </g>
        <g id="p96" serif:id="p" transform="matrix(1,0,0,1,80,224)">
            <rect x="0" y="0" width="8" height="8" style="fill:white;"/>
        </g>
        <g id="p97" serif:id="p" transform="matrix(1,0,0,1,88,96)">
            <rect x="0" y="0" width="8" height="8" style="fill:white;"/>
        </g>
        <g id="p98" serif:id="p" transform="matrix(1,0,0,1,88,104)">
            <rect x="0" y="0" width="8" height="8" style="fill:white;"/>
        </g>
        <g id="p99" serif:id="p" transform="matrix(1,0,0,1,88,120)">
            <rect x="0" y="0" width="8" height="8" style="fill:white;"/>
        </g>
        <g id="p100" serif:id="p" transform="matrix(1,0,0,1,96,56)">
            <rect x="0" y="0" width="8" height="8" style="fill:white;"/>
        </g>
        <g id="p101" serif:id="p" transform="matrix(1,0,0,1,96,64)">
            <rect x="0" y="0" width="8" height="8" style="fill:white;"/>
        </g>
        <g id="p102" serif:id="p" transform="matrix(1,0,0,1,96,80)">
            <rect x="0" y="0" width="8" height="8" style="fill:white;"/>
        </g>
        <g id="p103" serif:id="p" transform="matrix(1,0,0,1,96,104)">
            <rect x="0" y="0" width="8" height="8" style="fill:white;"/>
        </g>
        <g id="p104" serif:id="p" transform="matrix(1,0,0,1,96,120)">
            <rect x="0" y="0" width="8" height="8" style="fill:white;"/>
        </g>
        <g id="p105" serif:id="p" transform="matrix(1,0,0,1,96,136)">
            <rect x="0" y="0" width="8" height="8" style="fill:white;"/>
        </g>
        <g id="p106" serif:id="p" transform="matrix(1,0,0,1,96,152)">
            <rect x="0" y="0" width="8" height="8" style="fill:white;"/>
        </g>
        <g id="p107" serif:id="p" transform="matrix(1,0,0,1,96,168)">
            <rect x="0" y="0" width="8" height="8" style="fill:white;"/>
        </g>
        <g id="p108" serif:id="p" transform="matrix(1,0,0,1,96,176)">
            <rect x="0" y="0" width="8" height="8" style="fill:white;"/>
        </g>
        <g id="p109" serif:id="p" transform="matrix(1,0,0,1,96,184)">
            <rect x="0" y="0" width="8" height="8" style="fill:white;"/>
        </g>
        <g id="p110" serif:id="p" transform="matrix(1,0,0,1,96,216)">
            <rect x="0" y="0" width="8" height="8" style="fill:white;"/>
        </g>
        <g id="p111" serif:id="p" transform="matrix(1,0,0,1,96,224)">
            <rect x="0" y="0" width="8" height="8" style="fill:white;"/>
        </g>
        <g id="p112" serif:id="p" transform="matrix(1,0,0,1,104,32)">
            <rect x="0" y="0" width="8" height="8" style="fill:white;"/>
        </g>
        <g id="p113" serif:id="p" transform="matrix(1,0,0,1,104,48)">
            <rect x="0" y="0" width="8" height="8" style="fill:white;"/>
        </g>
        <g id="p114" serif:id="p" transform="matrix(1,0,0,1,104,56)">
            <rect x="0" y="0" width="8" height="8" style="fill:white;"/>
        </g>
        <g id="p115" serif:id="p" transform="matrix(1,0,0,1,104,72)">
            <rect x="0" y="0" width="8" height="8" style="fill:white;"/>
        </g>
        <g id="p116" serif:id="p" transform="matrix(1,0,0,1,104,96)">
            <rect x="0" y="0" width="8" height="8" style="fill:white;"/>
        </g>
        <g id="p117" serif:id="p" transform="matrix(1,0,0,1,104,104)">
            <rect x="0" y="0" width="8" height="8" style="fill:white;"/>
        </g>
        <g id="p118" serif:id="p" transform="matrix(1,0,0,1,104,120)">
            <rect x="0" y="0" width="8" height="8" style="fill:white;"/>
        </g>
        <g id="p119" serif:id="p" transform="matrix(1,0,0,1,104,128)">
            <rect x="0" y="0" width="8" height="8" style="fill:white;"/>
        </g>
        <g id="p120" serif:id="p" transform="matrix(1,0,0,1,104,144)">
            <rect x="0" y="0" width="8" height="8" style="fill:white;"/>
        </g>
        <g id="p121" serif:id="p" transform="matrix(1,0,0,1,104,152)">
            <rect x="0" y="0" width="8" height="8" style="fill:white;"/>
        </g>
        <g id="p122" serif:id="p" transform="matrix(1,0,0,1,104,160)">
            <rect x="0" y="0" width="8" height="8" style="fill:white;"/>
        </g>
        <g id="p123" serif:id="p" transform="matrix(1,0,0,1,104,168)">
            <rect x="0" y="0" width="8" height="8" style="fill:white;"/>
        </g>
        <g id="p124" serif:id="p" transform="matrix(1,0,0,1,104,184)">
            <rect x="0" y="0" width="8" height="8" style="fill:white;"/>
        </g>
        <g id="p125" serif:id="p" transform="matrix(1,0,0,1,104,192)">
            <rect x="0" y="0" width="8" height="8" style="fill:white;"/>
        </g>
        <g id="p126" serif:id="p" transform="matrix(1,0,0,1,104,200)">
            <rect x="0" y="0" width="8" height="8" style="fill:white;"/>
        </g>
        <g id="p127" serif:id="p" transform="matrix(1,0,0,1,104,208)">
            <rect x="0" y="0" width="8" height="8" style="fill:white;"/>
        </g>
        <g id="p128" serif:id="p" transform="matrix(1,0,0,1,104,216)">
            <rect x="0" y="0" width="8" height="8" style="fill:white;"/>
        </g>
        <g id="p129" serif:id="p" transform="matrix(1,0,0,1,112,32)">
            <rect x="0" y="0" width="8" height="8" style="fill:white;"/>
        </g>
        <g id="p130" serif:id="p" transform="matrix(1,0,0,1,112,40)">
            <rect x="0" y="0" width="8" height="8" style="fill:white;"/>
        </g>
        <g id="p131" serif:id="p" transform="matrix(1,0,0,1,112,48)">
            <rect x="0" y="0" width="8" height="8" style="fill:white;"/>
        </g>
        <g id="p132" serif:id="p" transform="matrix(1,0,0,1,112,56)">
            <rect x="0" y="0" width="8" height="8" style="fill:white;"/>
        </g>
        <g id="p133" serif:id="p" transform="matrix(1,0,0,1,112,72)">
            <rect x="0" y="0" width="8" height="8" style="fill:white;"/>
        </g>
        <g id="p134" serif:id="p" transform="matrix(1,0,0,1,112,80)">
            <rect x="0" y="0" width="8" height="8" style="fill:white;"/>
        </g>
        <g id="p135" serif:id="p" transform="matrix(1,0,0,1,112,88)">
            <rect x="0" y="0" width="8" height="8" style="fill:white;"/>
        </g>
        <g id="p136" serif:id="p" transform="matrix(1,0,0,1,112,104)">
            <rect x="0" y="0" width="8" height="8" style="fill:white;"/>
        </g>
        <g id="p137" serif:id="p" transform="matrix(1,0,0,1,112,112)">
            <rect x="0" y="0" width="8" height="8" style="fill:white;"/>
        </g>
        <g id="p138" serif:id="p" transform="matrix(1,0,0,1,112,144)">
            <rect x="0" y="0" width="8" height="8" style="fill:white;"/>
        </g>
        <g id="p139" serif:id="p" transform="matrix(1,0,0,1,112,152)">
            <rect x="0" y="0" width="8" height="8" style="fill:white;"/>
        </g>
        <g id="p140" serif:id="p" transform="matrix(1,0,0,1,112,184)">
            <rect x="0" y="0" width="8" height="8" style="fill:white;"/>
        </g>
        <g id="p141" serif:id="p" transform="matrix(1,0,0,1,112,208)">
            <rect x="0" y="0" width="8" height="8" style="fill:white;"/>
        </g>
        <g id="p142" serif:id="p" transform="matrix(1,0,0,1,120,56)">
            <rect x="0" y="0" width="8" height="8" style="fill:white;"/>
        </g>
        <g id="p143" serif:id="p" transform="matrix(1,0,0,1,120,64)">
            <rect x="0" y="0" width="8" height="8" style="fill:white;"/>
        </g>
        <g id="p144" serif:id="p" transform="matrix(1,0,0,1,120,104)">
            <rect x="0" y="0" width="8" height="8" style="fill:white;"/>
        </g>
        <g id="p145" serif:id="p" transform="matrix(1,0,0,1,120,128)">
            <rect x="0" y="0" width="8" height="8" style="fill:white;"/>
        </g>
        <g id="p146" serif:id="p" transform="matrix(1,0,0,1,120,136)">
            <rect x="0" y="0" width="8" height="8" style="fill:white;"/>
        </g>
        <g id="p147" serif:id="p" transform="matrix(1,0,0,1,120,168)">
            <rect x="0" y="0" width="8" height="8" style="fill:white;"/>
        </g>
        <g id="p148" serif:id="p" transform="matrix(1,0,0,1,120,176)">
            <rect x="0" y="0" width="8" height="8" style="fill:white;"/>
        </g>
        <g id="p149" serif:id="p" transform="matrix(1,0,0,1,120,192)">
            <rect x="0" y="0" width="8" height="8" style="fill:white;"/>
        </g>
        <g id="p150" serif:id="p" transform="matrix(1,0,0,1,120,200)">
            <rect x="0" y="0" width="8" height="8" style="fill:white;"/>
        </g>
        <g id="p151" serif:id="p" transform="matrix(1,0,0,1,120,216)">
            <rect x="0" y="0" width="8" height="8" style="fill:white;"/>
        </g>
        <g id="p152" serif:id="p" transform="matrix(1,0,0,1,120,224)">
            <rect x="0" y="0" width="8" height="8" style="fill:white;"/>
        </g>
        <g id="p153" serif:id="p" transform="matrix(1,0,0,1,128,40)">
            <rect x="0" y="0" width="8" height="8" style="fill:white;"/>
        </g>
        <g id="p154" serif:id="p" transform="matrix(1,0,0,1,128,56)">
            <rect x="0" y="0" width="8" height="8" style="fill:white;"/>
        </g>
        <g id="p155" serif:id="p" transform="matrix(1,0,0,1,128,80)">
            <rect x="0" y="0" width="8" height="8" style="fill:white;"/>
        </g>
        <g id="p156" serif:id="p" transform="matrix(1,0,0,1,128,112)">
            <rect x="0" y="0" width="8" height="8" style="fill:white;"/>
        </g>
        <g id="p157" serif:id="p" transform="matrix(1,0,0,1,128,128)">
            <rect x="0" y="0" width="8" height="8" style="fill:white;"/>
        </g>
        <g id="p158" serif:id="p" transform="matrix(1,0,0,1,128,160)">
            <rect x="0" y="0" width="8" height="8" style="fill:white;"/>
        </g>
        <g id="p159" serif:id="p" transform="matrix(1,0,0,1,128,176)">
            <rect x="0" y="0" width="8" height="8" style="fill:white;"/>
        </g>
        <g id="p160" serif:id="p" transform="matrix(1,0,0,1,128,184)">
            <rect x="0" y="0" width="8" height="8" style="fill:white;"/>
        </g>
        <g id="p161" serif:id="p" transform="matrix(1,0,0,1,128,192)">
            <rect x="0" y="0" width="8" height="8" style="fill:white;"/>
        </g>
        <g id="p162" serif:id="p" transform="matrix(1,0,0,1,128,216)">
            <rect x="0" y="0" width="8" height="8" style="fill:white;"/>
        </g>
        <g id="p163" serif:id="p" transform="matrix(1,0,0,1,128,224)">
            <rect x="0" y="0" width="8" height="8" style="fill:white;"/>
        </g>
        <g id="p164" serif:id="p" transform="matrix(1,0,0,1,136,40)">
            <rect x="0" y="0" width="8" height="8" style="fill:white;"/>
        </g>
        <g id="p165" serif:id="p" transform="matrix(1,0,0,1,136,56)">
            <rect x="0" y="0" width="8" height="8" style="fill:white;"/>
        </g>
        <g id="p166" serif:id="p" transform="matrix(1,0,0,1,136,72)">
            <rect x="0" y="0" width="8" height="8" style="fill:white;"/>
        </g>
        <g id="p167" serif:id="p" transform="matrix(1,0,0,1,136,96)">
            <rect x="0" y="0" width="8" height="8" style="fill:white;"/>
        </g>
        <g id="p168" serif:id="p" transform="matrix(1,0,0,1,136,104)">
            <rect x="0" y="0" width="8" height="8" style="fill:white;"/>
        </g>
        <g id="p169" serif:id="p" transform="matrix(1,0,0,1,136,112)">
            <rect x="0" y="0" width="8" height="8" style="fill:white;"/>
        </g>
        <g id="p170" serif:id="p" transform="matrix(1,0,0,1,136,136)">
            <rect x="0" y="0" width="8" height="8" style="fill:white;"/>
        </g>
        <g id="p171" serif:id="p" transform="matrix(1,0,0,1,136,160)">
            <rect x="0" y="0" width="8" height="8" style="fill:white;"/>
        </g>
        <g id="p172" serif:id="p" transform="matrix(1,0,0,1,136,168)">
            <rect x="0" y="0" width="8" height="8" style="fill:white;"/>
        </g>
        <g id="p173" serif:id="p" transform="matrix(1,0,0,1,136,192)">
            <rect x="0" y="0" width="8" height="8" style="fill:white;"/>
        </g>
        <g id="p174" serif:id="p" transform="matrix(1,0,0,1,136,208)">
            <rect x="0" y="0" width="8" height="8" style="fill:white;"/>
        </g>
        <g id="p175" serif:id="p" transform="matrix(1,0,0,1,144,32)">
            <rect x="0" y="0" width="8" height="8" style="fill:white;"/>
        </g>
        <g id="p176" serif:id="p" transform="matrix(1,0,0,1,144,40)">
            <rect x="0" y="0" width="8" height="8" style="fill:white;"/>
        </g>
        <g id="p177" serif:id="p" transform="matrix(1,0,0,1,144,80)">
            <rect x="0" y="0" width="8" height="8" style="fill:white;"/>
        </g>
        <g id="p178" serif:id="p" transform="matrix(1,0,0,1,144,88)">
            <rect x="0" y="0" width="8" height="8" style="fill:white;"/>
        </g>
        <g id="p179" serif:id="p" transform="matrix(1,0,0,1,144,96)">
            <rect x="0" y="0" width="8" height="8" style="fill:white;"/>
        </g>
        <g id="p180" serif:id="p" transform="matrix(1,0,0,1,144,104)">
            <rect x="0" y="0" width="8" height="8" style="fill:white;"/>
        </g>
        <g id="p181" serif:id="p" transform="matrix(1,0,0,1,144,112)">
            <rect x="0" y="0" width="8" height="8" style="fill:white;"/>
        </g>
        <g id="p182" serif:id="p" transform="matrix(1,0,0,1,144,120)">
            <rect x="0" y="0" width="8" height="8" style="fill:white;"/>
        </g>
        <g id="p183" serif:id="p" transform="matrix(1,0,0,1,144,144)">
            <rect x="0" y="0" width="8" height="8" style="fill:white;"/>
        </g>
        <g id="p184" serif:id="p" transform="matrix(1,0,0,1,144,184)">
            <rect x="0" y="0" width="8" height="8" style="fill:white;"/>
        </g>
        <g id="p185" serif:id="p" transform="matrix(1,0,0,1,144,192)">
            <rect x="0" y="0" width="8" height="8" style="fill:white;"/>
        </g>
        <g id="p186" serif:id="p" transform="matrix(1,0,0,1,144,216)">
            <rect x="0" y="0" width="8" height="8" style="fill:white;"/>
        </g>
        <g id="p187" serif:id="p" transform="matrix(1,0,0,1,152,48)">
            <rect x="0" y="0" width="8" height="8" style="fill:white;"/>
        </g>
        <g id="p188" serif:id="p" transform="matrix(1,0,0,1,152,56)">
            <rect x="0" y="0" width="8" height="8" style="fill:white;"/>
        </g>
        <g id="p189" serif:id="p" transform="matrix(1,0,0,1,152,104)">
            <rect x="0" y="0" width="8" height="8" style="fill:white;"/>
        </g>
        <g id="p190" serif:id="p" transform="matrix(1,0,0,1,152,112)">
            <rect x="0" y="0" width="8" height="8" style="fill:white;"/>
        </g>
        <g id="p191" serif:id="p" transform="matrix(1,0,0,1,152,120)">
            <rect x="0" y="0" width="8" height="8" style="fill:white;"/>
        </g>
        <g id="p192" serif:id="p" transform="matrix(1,0,0,1,152,136)">
            <rect x="0" y="0" width="8" height="8" style="fill:white;"/>
        </g>
        <g id="p193" serif:id="p" transform="matrix(1,0,0,1,152,144)">
            <rect x="0" y="0" width="8" height="8" style="fill:white;"/>
        </g>
        <g id="p194" serif:id="p" transform="matrix(1,0,0,1,152,160)">
            <rect x="0" y="0" width="8" height="8" style="fill:white;"/>
        </g>
        <g id="p195" serif:id="p" transform="matrix(1,0,0,1,152,168)">
            <rect x="0" y="0" width="8" height="8" style="fill:white;"/>
        </g>
        <g id="p196" serif:id="p" transform="matrix(1,0,0,1,152,184)">
            <rect x="0" y="0" width="8" height="8" style="fill:white;"/>
        </g>
        <g id="p197" serif:id="p" transform="matrix(1,0,0,1,152,192)">
            <rect x="0" y="0" width="8" height="8" style="fill:white;"/>
        </g>
        <g id="p198" serif:id="p" transform="matrix(1,0,0,1,152,200)">
            <rect x="0" y="0" width="8" height="8" style="fill:white;"/>
        </g>
        <g id="p199" serif:id="p" transform="matrix(1,0,0,1,160,32)">
            <rect x="0" y="0" width="8" height="8" style="fill:white;"/>
        </g>
        <g id="p200" serif:id="p" transform="matrix(1,0,0,1,160,64)">
            <rect x="0" y="0" width="8" height="8" style="fill:white;"/>
        </g>
        <g id="p201" serif:id="p" transform="matrix(1,0,0,1,160,72)">
            <rect x="0" y="0" width="8" height="8" style="fill:white;"/>
        </g>
        <g id="p202" serif:id="p" transform="matrix(1,0,0,1,160,80)">
            <rect x="0" y="0" width="8" height="8" style="fill:white;"/>
        </g>
        <g id="p203" serif:id="p" transform="matrix(1,0,0,1,160,120)">
            <rect x="0" y="0" width="8" height="8" style="fill:white;"/>
        </g>
        <g id="p204" serif:id="p" transform="matrix(1,0,0,1,160,128)">
            <rect x="0" y="0" width="8" height="8" style="fill:white;"/>
        </g>
        <g id="p205" serif:id="p" transform="matrix(1,0,0,1,160,136)">
            <rect x="0" y="0" width="8" height="8" style="fill:white;"/>
        </g>
        <g id="p206" serif:id="p" transform="matrix(1,0,0,1,160,160)">
            <rect x="0" y="0" width="8" height="8" style="fill:white;"/>
        </g>
        <g id="p207" serif:id="p" transform="matrix(1,0,0,1,160,168)">
            <rect x="0" y="0" width="8" height="8" style="fill:white;"/>
        </g>
        <g id="p208" serif:id="p" transform="matrix(1,0,0,1,160,176)">
            <rect x="0" y="0" width="8" height="8" style="fill:white;"/>
        </g>
        <g id="p209" serif:id="p" transform="matrix(1,0,0,1,160,184)">
            <rect x="0" y="0" width="8" height="8" style="fill:white;"/>
        </g>
        <g id="p210" serif:id="p" transform="matrix(1,0,0,1,160,192)">
            <rect x="0" y="0" width="8" height="8" style="fill:white;"/>
        </g>
        <g id="p211" serif:id="p" transform="matrix(1,0,0,1,160,200)">
            <rect x="0" y="0" width="8" height="8" style="fill:white;"/>
        </g>
        <g id="p212" serif:id="p" transform="matrix(1,0,0,1,160,216)">
            <rect x="0" y="0" width="8" height="8" style="fill:white;"/>
        </g>
        <g id="p213" serif:id="p" transform="matrix(1,0,0,1,160,224)">
            <rect x="0" y="0" width="8" height="8" style="fill:white;"/>
        </g>
        <g id="p214" serif:id="p" transform="matrix(1,0,0,1,168,112)">
            <rect x="0" y="0" width="8" height="8" style="fill:white;"/>
        </g>
        <g id="p215" serif:id="p" transform="matrix(1,0,0,1,168,152)">
            <rect x="0" y="0" width="8" height="8" style="fill:white;"/>
        </g>
        <g id="p216" serif:id="p" transform="matrix(1,0,0,1,168,160)">
            <rect x="0" y="0" width="8" height="8" style="fill:white;"/>
        </g>
        <g id="p217" serif:id="p" transform="matrix(1,0,0,1,168,192)">
            <rect x="0" y="0" width="8" height="8" style="fill:white;"/>
        </g>
        <g id="p218" serif:id="p" transform="matrix(1,0,0,1,168,200)">
            <rect x="0" y="0" width="8" height="8" style="fill:white;"/>
        </g>
        <g id="p219" serif:id="p" transform="matrix(1,0,0,1,168,216)">
            <rect x="0" y="0" width="8" height="8" style="fill:white;"/>
        </g>
        <g id="p220" serif:id="p" transform="matrix(1,0,0,1,168,224)">
            <rect x="0" y="0" width="8" height="8" style="fill:white;"/>
        </g>
        <g id="p221" serif:id="p" transform="matrix(1,0,0,1,176,32)">
            <rect x="0" y="0" width="8" height="8" style="fill:white;"/>
        </g>
        <g id="p222" serif:id="p" transform="matrix(1,0,0,1,176,40)">
            <rect x="0" y="0" width="8" height="8" style="fill:white;"/>
        </g>
        <g id="p223" serif:id="p" transform="matrix(1,0,0,1,176,48)">
            <rect x="0" y="0" width="8" height="8" style="fill:white;"/>
        </g>
        <g id="p224" serif:id="p" transform="matrix(1,0,0,1,176,56)">
            <rect x="0" y="0" width="8" height="8" style="fill:white;"/>
        </g>
        <g id="p225" serif:id="p" transform="matrix(1,0,0,1,176,64)">
            <rect x="0" y="0" width="8" height="8" style="fill:white;"/>
        </g>
        <g id="p226" serif:id="p" transform="matrix(1,0,0,1,176,72)">
            <rect x="0" y="0" width="8" height="8" style="fill:white;"/>
        </g>
        <g id="p227" serif:id="p" transform="matrix(1,0,0,1,176,80)">
            <rect x="0" y="0" width="8" height="8" style="fill:white;"/>
        </g>
        <g id="p228" serif:id="p" transform="matrix(1,0,0,1,176,120)">
            <rect x="0" y="0" width="8" height="8" style="fill:white;"/>
        </g>
        <g id="p229" serif:id="p" transform="matrix(1,0,0,1,176,128)">
            <rect x="0" y="0" width="8" height="8" style="fill:white;"/>
        </g>
        <g id="p230" serif:id="p" transform="matrix(1,0,0,1,176,144)">
            <rect x="0" y="0" width="8" height="8" style="fill:white;"/>
        </g>
        <g id="p231" serif:id="p" transform="matrix(1,0,0,1,176,152)">
            <rect x="0" y="0" width="8" height="8" style="fill:white;"/>
        </g>
        <g id="p232" serif:id="p" transform="matrix(1,0,0,1,176,160)">
            <rect x="0" y="0" width="8" height="8" style="fill:white;"/>
        </g>
        <g id="p233" serif:id="p" transform="matrix(1,0,0,1,176,176)">
            <rect x="0" y="0" width="8" height="8" style="fill:white;"/>
        </g>
        <g id="p234" serif:id="p" transform="matrix(1,0,0,1,176,192)">
            <rect x="0" y="0" width="8" height="8" style="fill:white;"/>
        </g>
        <g id="p235" serif:id="p" transform="matrix(1,0,0,1,176,200)">
            <rect x="0" y="0" width="8" height="8" style="fill:white;"/>
        </g>
        <g id="p236" serif:id="p" transform="matrix(1,0,0,1,184,32)">
            <rect x="0" y="0" width="8" height="8" style="fill:white;"/>
        </g>
        <g id="p237" serif:id="p" transform="matrix(1,0,0,1,184,80)">
            <rect x="0" y="0" width="8" height="8" style="fill:white;"/>
        </g>
        <g id="p238" serif:id="p" transform="matrix(1,0,0,1,184,104)">
            <rect x="0" y="0" width="8" height="8" style="fill:white;"/>
        </g>
        <g id="p239" serif:id="p" transform="matrix(1,0,0,1,184,136)">
            <rect x="0" y="0" width="8" height="8" style="fill:white;"/>
        </g>
        <g id="p240" serif:id="p" transform="matrix(1,0,0,1,184,144)">
            <rect x="0" y="0" width="8" height="8" style="fill:white;"/>
        </g>
        <g id="p241" serif:id="p" transform="matrix(1,0,0,1,184,152)">
            <rect x="0" y="0" width="8" height="8" style="fill:white;"/>
        </g>
        <g id="p242" serif:id="p" transform="matrix(1,0,0,1,184,160)">
            <rect x="0" y="0" width="8" height="8" style="fill:white;"/>
        </g>
        <g id="p243" serif:id="p" transform="matrix(1,0,0,1,184,192)">
            <rect x="0" y="0" width="8" height="8" style="fill:white;"/>
        </g>
        <g id="p244" serif:id="p" transform="matrix(1,0,0,1,184,216)">
            <rect x="0" y="0" width="8" height="8" style="fill:white;"/>
        </g>
        <g id="p245" serif:id="p" transform="matrix(1,0,0,1,192,32)">
            <rect x="0" y="0" width="8" height="8" style="fill:white;"/>
        </g>
        <g id="p246" serif:id="p" transform="matrix(1,0,0,1,192,48)">
            <rect x="0" y="0" width="8" height="8" style="fill:white;"/>
        </g>
        <g id="p247" serif:id="p" transform="matrix(1,0,0,1,192,56)">
            <rect x="0" y="0" width="8" height="8" style="fill:white;"/>
        </g>
        <g id="p248" serif:id="p" transform="matrix(1,0,0,1,192,64)">
            <rect x="0" y="0" width="8" height="8" style="fill:white;"/>
        </g>
        <g id="p249" serif:id="p" transform="matrix(1,0,0,1,192,80)">
            <rect x="0" y="0" width="8" height="8" style="fill:white;"/>
        </g>
        <g id="p250" serif:id="p" transform="matrix(1,0,0,1,192,96)">
            <rect x="0" y="0" width="8" height="8" style="fill:white;"/>
        </g>
        <g id="p251" serif:id="p" transform="matrix(1,0,0,1,192,104)">
            <rect x="0" y="0" width="8" height="8" style="fill:white;"/>
        </g>
        <g id="p252" serif:id="p" transform="matrix(1,0,0,1,192,144)">
            <rect x="0" y="0" width="8" height="8" style="fill:white;"/>
        </g>
        <g id="p253" serif:id="p" transform="matrix(1,0,0,1,192,160)">
            <rect x="0" y="0" width="8" height="8" style="fill:white;"/>
        </g>
        <g id="p254" serif:id="p" transform="matrix(1,0,0,1,192,168)">
            <rect x="0" y="0" width="8" height="8" style="fill:white;"/>
        </g>
        <g id="p255" serif:id="p" transform="matrix(1,0,0,1,192,176)">
            <rect x="0" y="0" width="8" height="8" style="fill:white;"/>
        </g>
        <g id="p256" serif:id="p" transform="matrix(1,0,0,1,192,184)">
            <rect x="0" y="0" width="8" height="8" style="fill:white;"/>
        </g>
        <g id="p257" serif:id="p" transform="matrix(1,0,0,1,192,192)">
            <rect x="0" y="0" width="8" height="8" style="fill:white;"/>
        </g>
        <g id="p258" serif:id="p" transform="matrix(1,0,0,1,192,216)">
            <rect x="0" y="0" width="8" height="8" style="fill:white;"/>
        </g>
        <g id="p259" serif:id="p" transform="matrix(1,0,0,1,200,32)">
            <rect x="0" y="0" width="8" height="8" style="fill:white;"/>
        </g>
        <g id="p260" serif:id="p" transform="matrix(1,0,0,1,200,48)">
            <rect x="0" y="0" width="8" height="8" style="fill:white;"/>
        </g>
        <g id="p261" serif:id="p" transform="matrix(1,0,0,1,200,56)">
            <rect x="0" y="0" width="8" height="8" style="fill:white;"/>
        </g>
        <g id="p262" serif:id="p" transform="matrix(1,0,0,1,200,64)">
            <rect x="0" y="0" width="8" height="8" style="fill:white;"/>
        </g>
        <g id="p263" serif:id="p" transform="matrix(1,0,0,1,200,80)">
            <rect x="0" y="0" width="8" height="8" style="fill:white;"/>
        </g>
        <g id="p264" serif:id="p" transform="matrix(1,0,0,1,200,96)">
            <rect x="0" y="0" width="8" height="8" style="fill:white;"/>
        </g>
        <g id="p265" serif:id="p" transform="matrix(1,0,0,1,200,104)">
            <rect x="0" y="0" width="8" height="8" style="fill:white;"/>
        </g>
        <g id="p266" serif:id="p" transform="matrix(1,0,0,1,200,112)">
            <rect x="0" y="0" width="8" height="8" style="fill:white;"/>
        </g>
        <g id="p267" serif:id="p" transform="matrix(1,0,0,1,200,120)">
            <rect x="0" y="0" width="8" height="8" style="fill:white;"/>
        </g>
        <g id="p268" serif:id="p" transform="matrix(1,0,0,1,200,144)">
            <rect x="0" y="0" width="8" height="8" style="fill:white;"/>
        </g>
        <g id="p269" serif:id="p" transform="matrix(1,0,0,1,200,152)">
            <rect x="0" y="0" width="8" height="8" style="fill:white;"/>
        </g>
        <g id="p270" serif:id="p" transform="matrix(1,0,0,1,200,208)">
            <rect x="0" y="0" width="8" height="8" style="fill:white;"/>
        </g>
        <g id="p271" serif:id="p" transform="matrix(1,0,0,1,200,224)">
            <rect x="0" y="0" width="8" height="8" style="fill:white;"/>
        </g>
        <g id="p272" serif:id="p" transform="matrix(1,0,0,1,208,32)">
            <rect x="0" y="0" width="8" height="8" style="fill:white;"/>
        </g>
        <g id="p273" serif:id="p" transform="matrix(1,0,0,1,208,48)">
            <rect x="0" y="0" width="8" height="8" style="fill:white;"/>
        </g>
        <g id="p274" serif:id="p" transform="matrix(1,0,0,1,208,56)">
            <rect x="0" y="0" width="8" height="8" style="fill:white;"/>
        </g>
        <g id="p275" serif:id="p" transform="matrix(1,0,0,1,208,64)">
            <rect x="0" y="0" width="8" height="8" style="fill:white;"/>
        </g>
        <g id="p276" serif:id="p" transform="matrix(1,0,0,1,208,80)">
            <rect x="0" y="0" width="8" height="8" style="fill:white;"/>
        </g>
        <g id="p277" serif:id="p" transform="matrix(1,0,0,1,208,104)">
            <rect x="0" y="0" width="8" height="8" style="fill:white;"/>
        </g>
        <g id="p278" serif:id="p" transform="matrix(1,0,0,1,208,152)">
            <rect x="0" y="0" width="8" height="8" style="fill:white;"/>
        </g>
        <g id="p279" serif:id="p" transform="matrix(1,0,0,1,208,160)">
            <rect x="0" y="0" width="8" height="8" style="fill:white;"/>
        </g>
        <g id="p280" serif:id="p" transform="matrix(1,0,0,1,208,192)">
            <rect x="0" y="0" width="8" height="8" style="fill:white;"/>
        </g>
        <g id="p281" serif:id="p" transform="matrix(1,0,0,1,208,208)">
            <rect x="0" y="0" width="8" height="8" style="fill:white;"/>
        </g>
        <g id="p282" serif:id="p" transform="matrix(1,0,0,1,216,32)">
            <rect x="0" y="0" width="8" height="8" style="fill:white;"/>
        </g>
        <g id="p283" serif:id="p" transform="matrix(1,0,0,1,216,80)">
            <rect x="0" y="0" width="8" height="8" style="fill:white;"/>
        </g>
        <g id="p284" serif:id="p" transform="matrix(1,0,0,1,216,104)">
            <rect x="0" y="0" width="8" height="8" style="fill:white;"/>
        </g>
        <g id="p285" serif:id="p" transform="matrix(1,0,0,1,216,112)">
            <rect x="0" y="0" width="8" height="8" style="fill:white;"/>
        </g>
        <g id="p286" serif:id="p" transform="matrix(1,0,0,1,216,136)">
            <rect x="0" y="0" width="8" height="8" style="fill:white;"/>
        </g>
        <g id="p287" serif:id="p" transform="matrix(1,0,0,1,216,144)">
            <rect x="0" y="0" width="8" height="8" style="fill:white;"/>
        </g>
        <g id="p288" serif:id="p" transform="matrix(1,0,0,1,216,184)">
            <rect x="0" y="0" width="8" height="8" style="fill:white;"/>
        </g>
        <g id="p289" serif:id="p" transform="matrix(1,0,0,1,216,192)">
            <rect x="0" y="0" width="8" height="8" style="fill:white;"/>
        </g>
        <g id="p290" serif:id="p" transform="matrix(1,0,0,1,216,200)">
            <rect x="0" y="0" width="8" height="8" style="fill:white;"/>
        </g>
        <g id="p291" serif:id="p" transform="matrix(1,0,0,1,224,32)">
            <rect x="0" y="0" width="8" height="8" style="fill:white;"/>
        </g>
        <g id="p292" serif:id="p" transform="matrix(1,0,0,1,224,40)">
            <rect x="0" y="0" width="8" height="8" style="fill:white;"/>
        </g>
        <g id="p293" serif:id="p" transform="matrix(1,0,0,1,224,48)">
            <rect x="0" y="0" width="8" height="8" style="fill:white;"/>
        </g>
        <g id="p294" serif:id="p" transform="matrix(1,0,0,1,224,56)">
            <rect x="0" y="0" width="8" height="8" style="fill:white;"/>
        </g>
        <g id="p295" serif:id="p" transform="matrix(1,0,0,1,224,64)">
            <rect x="0" y="0" width="8" height="8" style="fill:white;"/>
        </g>
        <g id="p296" serif:id="p" transform="matrix(1,0,0,1,224,72)">
            <rect x="0" y="0" width="8" height="8" style="fill:white;"/>
        </g>
        <g id="p297" serif:id="p" transform="matrix(1,0,0,1,224,80)">
            <rect x="0" y="0" width="8" height="8" style="fill:white;"/>
        </g>
        <g id="p298" serif:id="p" transform="matrix(1,0,0,1,224,112)">
            <rect x="0" y="0" width="8" height="8" style="fill:white;"/>
        </g>
        <g id="p299" serif:id="p" transform="matrix(1,0,0,1,224,120)">
            <rect x="0" y="0" width="8" height="8" style="fill:white;"/>
        </g>
        <g id="p300" serif:id="p" transform="matrix(1,0,0,1,224,128)">
            <rect x="0" y="0" width="8" height="8" style="fill:white;"/>
        </g>
        <g id="p301" serif:id="p" transform="matrix(1,0,0,1,224,144)">
            <rect x="0" y="0" width="8" height="8" style="fill:white;"/>
        </g>
        <g id="p302" serif:id="p" transform="matrix(1,0,0,1,224,152)">
            <rect x="0" y="0" width="8" height="8" style="fill:white;"/>
        </g>
        <g id="p303" serif:id="p" transform="matrix(1,0,0,1,224,176)">
            <rect x="0" y="0" width="8" height="8" style="fill:white;"/>
        </g>
        <g id="p304" serif:id="p" transform="matrix(1,0,0,1,224,200)">
            <rect x="0" y="0" width="8" height="8" style="fill:white;"/>
        </g>
        <g id="p305" serif:id="p" transform="matrix(1,0,0,1,224,208)">
            <rect x="0" y="0" width="8" height="8" style="fill:white;"/>
        </g>
        <g id="p306" serif:id="p" transform="matrix(1,0,0,1,224,216)">
            <rect x="0" y="0" width="8" height="8" style="fill:white;"/>
        </g>
        <g id="p307" serif:id="p" transform="matrix(1,0,0,1,224,224)">
            <rect x="0" y="0" width="8" height="8" style="fill:white;"/>
        </g>
    </g>
</svg>
